<svg xmlns="http://www.w3.org/2000/svg" xmlns:xlink="http://www.w3.org/1999/xlink" width="350" zoomAndPan="magnify" viewBox="0 0 262.5 67.499998" height="90" preserveAspectRatio="xMidYMid meet" version="1.0"><defs><g/><clipPath id="61388f6ff1"><path d="M 51 24 L 64.878906 24 L 64.878906 36 L 51 36 Z M 51 24 " clip-rule="nonzero"/></clipPath><clipPath id="4f7a74b1a8"><path d="M 52 24 L 64.878906 24 L 64.878906 36 L 52 36 Z M 52 24 " clip-rule="nonzero"/></clipPath><clipPath id="3d5cb98b24"><path d="M 24.636719 30 L 49 30 L 49 51.125 L 24.636719 51.125 Z M 24.636719 30 " clip-rule="nonzero"/></clipPath></defs><path stroke-linecap="butt" transform="matrix(0.0850355, 0, 0, 0.0847126, 22.985294, 12.224346)" fill="none" stroke-linejoin="miter" d="M 181.255496 52.731927 C 199.722059 44.570143 220.117964 50.19578 237.527982 58.77257 C 257.005152 68.963273 276.895753 83.765154 284.888743 106.959378 C 288.471808 116.458404 286.129035 127.52523 279.973514 134.949226 C 275.104221 139.560404 268.213713 138.269274 262.425686 137.62371 C 249.241846 134.488109 241.20292 121.438476 230.95903 112.907797 C 222.093243 104.238783 212.630278 94.83198 200.594857 92.434168 C 189.8916 90.451361 180.566445 98.336475 173.721874 106.49826 C 163.386111 120.700687 156.863096 137.715933 151.76412 154.915626 C 148.456676 169.948065 141.428357 184.242716 142.255218 200.105168 C 141.244611 185.487734 137.523736 171.285307 137.156242 156.57565 C 136.467191 137.669821 138.626217 118.625657 142.898333 100.319282 C 150.753512 80.721776 162.880807 61.308718 181.255496 52.731927 Z M 181.255496 52.731927 " stroke="#000000" stroke-width="0.1" stroke-opacity="1" stroke-miterlimit="10"/><path fill="#000000" d="M 38.398438 16.691406 C 39.96875 16 41.703125 16.476562 43.183594 17.203125 C 44.839844 18.066406 46.53125 19.320312 47.210938 21.285156 C 47.515625 22.089844 47.316406 23.027344 46.792969 23.65625 C 46.378906 24.046875 45.792969 23.9375 45.300781 23.882812 C 44.179688 23.617188 43.496094 22.511719 42.625 21.789062 C 41.871094 21.054688 41.066406 20.257812 40.042969 20.054688 C 39.132812 19.886719 38.339844 20.554688 37.757812 21.246094 C 36.878906 22.449219 36.324219 23.890625 35.890625 25.347656 C 35.609375 26.621094 35.011719 27.832031 35.082031 29.175781 C 34.996094 27.9375 34.679688 26.734375 34.648438 25.488281 C 34.589844 23.886719 34.773438 22.273438 35.136719 20.722656 C 35.804688 19.0625 36.835938 17.417969 38.398438 16.691406 Z M 38.398438 16.691406 " fill-opacity="1" fill-rule="nonzero"/><path stroke-linecap="butt" transform="matrix(0.0850355, 0, 0, 0.0847126, 22.985294, 12.224346)" fill="none" stroke-linejoin="miter" d="M 349.429839 65.274331 C 362.797425 63.568195 376.854062 69.378279 385.811723 80.583441 C 391.875371 88.883561 395.963739 99.397046 395.917802 110.187202 C 394.723448 123.37517 388.751674 136.378692 378.829342 143.941023 C 367.115477 153.20949 351.083561 155.100073 337.899721 148.690536 C 318.284741 140.436528 306.892433 112.400567 316.952576 91.18915 C 322.602793 76.802275 335.694759 67.395473 349.429839 65.274331 Z M 349.429839 65.274331 " stroke="#000000" stroke-width="0.1" stroke-opacity="1" stroke-miterlimit="10"/><path fill="#000000" d="M 52.699219 17.753906 C 53.835938 17.609375 55.03125 18.101562 55.792969 19.050781 C 56.308594 19.753906 56.65625 20.644531 56.652344 21.558594 C 56.550781 22.675781 56.042969 23.777344 55.199219 24.417969 C 54.203125 25.203125 52.839844 25.363281 51.71875 24.820312 C 50.050781 24.121094 49.082031 21.746094 49.9375 19.949219 C 50.417969 18.730469 51.53125 17.933594 52.699219 17.753906 Z M 52.699219 17.753906 " fill-opacity="1" fill-rule="nonzero"/><g clip-path="url(#61388f6ff1)"><path stroke-linecap="butt" transform="matrix(0.0850355, 0, 0, 0.0847126, 22.985294, 12.224346)" fill="none" stroke-linejoin="miter" d="M 488.480299 141.819881 C 489.261223 141.773769 490.042148 141.773769 490.869009 141.773769 C 490.547452 149.56666 492.338984 157.405662 491.190566 165.152441 C 489.353097 178.524856 484.483804 191.113371 479.247018 203.194657 C 467.7169 231.783959 445.942894 255.393189 419.529278 266.506127 C 407.401983 271.25564 392.977852 270.886746 382.044912 262.771073 C 364.359274 249.951999 350.486384 230.400606 344.376799 207.805835 C 340.564051 195.586214 340.426241 180.922669 347.041129 169.855842 C 350.348573 165.014105 354.804435 159.619027 360.776209 159.987922 C 366.977667 160.633486 372.490074 164.737435 376.210948 170.132513 C 384.984862 182.951587 386.822331 199.597938 394.080334 213.293136 C 400.143981 222.146598 409.928503 232.613971 420.76957 227.449452 C 433.815599 221.316586 444.794476 210.895324 455.405859 200.658509 C 468.819382 187.793323 478.190473 170.685854 485.632222 153.071155 C 487.148134 149.520548 488.158742 145.739382 488.480299 141.819881 Z M 488.480299 141.819881 " stroke="#000000" stroke-width="0.1" stroke-opacity="1" stroke-miterlimit="10"/></g><g clip-path="url(#4f7a74b1a8)"><path fill="#000000" d="M 64.523438 24.238281 C 64.589844 24.234375 64.65625 24.234375 64.726562 24.234375 C 64.699219 24.894531 64.851562 25.558594 64.753906 26.214844 C 64.597656 27.347656 64.183594 28.414062 63.738281 29.4375 C 62.757812 31.859375 60.90625 33.859375 58.660156 34.800781 C 57.628906 35.203125 56.402344 35.171875 55.472656 34.484375 C 53.96875 33.398438 52.789062 31.742188 52.269531 29.828125 C 51.945312 28.792969 51.933594 27.550781 52.496094 26.613281 C 52.777344 26.203125 53.15625 25.746094 53.664062 25.777344 C 54.191406 25.832031 54.660156 26.179688 54.976562 26.636719 C 55.722656 27.722656 55.878906 29.132812 56.496094 30.292969 C 57.011719 31.042969 57.84375 31.929688 58.765625 31.492188 C 59.875 30.972656 60.808594 30.089844 61.710938 29.222656 C 62.851562 28.132812 63.648438 26.683594 64.28125 25.191406 C 64.410156 24.890625 64.496094 24.570312 64.523438 24.238281 Z M 64.523438 24.238281 " fill-opacity="1" fill-rule="nonzero"/></g><g clip-path="url(#3d5cb98b24)"><path stroke-linecap="butt" transform="matrix(0.0850355, 0, 0, 0.0847126, 22.985294, 12.224346)" fill="none" stroke-linejoin="miter" d="M 162.42144 223.806621 C 170.184746 216.520961 181.62299 217.212637 190.672524 220.855468 C 199.722059 225.143863 209.276897 228.463911 217.545507 234.550666 C 230.40779 243.726909 242.718832 254.009836 253.697708 265.814451 C 266.14656 276.973501 277.676678 289.423681 287.553073 303.395549 C 294.857012 312.940687 302.436571 324.099737 301.885331 337.287706 C 296.510734 356.516317 281.673173 370.626521 266.238434 380.033323 C 245.750655 391.607379 222.920104 396.172445 201.054224 403.273659 C 191.591259 406.685931 181.668927 407.930949 171.792531 409.083743 C 160.675844 409.77542 149.467284 412.311568 138.350597 410.144314 C 145.470789 404.380342 154.106893 401.798082 161.962073 397.555799 C 184.471067 386.719531 205.647896 372.885998 227.60565 360.712489 C 236.884868 355.732417 245.980339 349.368991 251.308999 339.178289 C 251.033378 336.918811 250.757758 334.705446 250.482138 332.492081 C 244.234743 325.436979 236.517374 320.410795 228.570321 316.168512 C 219.291103 324.69919 208.633783 331.154839 200.089553 340.699977 C 176.615887 360.066924 150.707576 375.28381 125.763935 392.068497 C 92.138254 413.049356 60.350042 437.53471 26.127183 457.316662 C 24.105967 458.100562 22.084751 458.746127 19.971662 459.161133 C 33.109565 443.25257 48.45243 429.695708 61.406586 413.510474 C 80.056896 391.791827 98.753142 369.980956 118.230312 349.138432 C 138.855901 327.097003 158.838375 304.410008 177.948052 280.708555 C 169.863189 272.454547 159.48149 264.846103 157.046843 252.165365 C 154.70407 242.574115 156.082172 231.230618 162.375503 223.806621 Z M 162.42144 223.806621 " stroke="#000000" stroke-width="0.1" stroke-opacity="1" stroke-miterlimit="10"/><path fill="#000000" d="M 36.796875 31.183594 C 37.457031 30.566406 38.429688 30.625 39.199219 30.933594 C 39.96875 31.296875 40.78125 31.578125 41.484375 32.09375 C 42.578125 32.871094 43.625 33.742188 44.558594 34.742188 C 45.617188 35.6875 46.597656 36.742188 47.4375 37.925781 C 48.058594 38.734375 48.703125 39.679688 48.65625 40.796875 C 48.199219 42.425781 46.9375 43.621094 45.625 44.417969 C 43.882812 45.398438 41.941406 45.785156 40.082031 46.386719 C 39.277344 46.675781 38.433594 46.78125 37.59375 46.878906 C 36.648438 46.9375 35.695312 47.152344 34.75 46.96875 C 35.355469 46.480469 36.089844 46.261719 36.757812 45.902344 C 38.671875 44.984375 40.472656 43.8125 42.339844 42.78125 C 43.128906 42.359375 43.902344 41.820312 44.355469 40.957031 C 44.332031 40.765625 44.308594 40.578125 44.285156 40.390625 C 43.753906 39.792969 43.097656 39.367188 42.421875 39.007812 C 41.632812 39.730469 40.726562 40.277344 40 41.085938 C 38.003906 42.726562 35.800781 44.015625 33.679688 45.4375 C 30.820312 47.214844 28.117188 49.289062 25.207031 50.964844 C 25.035156 51.03125 24.863281 51.085938 24.683594 51.121094 C 25.800781 49.773438 27.105469 48.625 28.207031 47.253906 C 29.792969 45.414062 31.382812 43.566406 33.039062 41.800781 C 34.792969 39.933594 36.492188 38.011719 38.117188 36.003906 C 37.429688 35.304688 36.546875 34.660156 36.339844 33.585938 C 36.140625 32.773438 36.257812 31.8125 36.792969 31.183594 Z M 36.796875 31.183594 " fill-opacity="1" fill-rule="nonzero"/></g><g fill="#000000" fill-opacity="1"><g transform="translate(71.319541, 47.885921)"><g><path d="M 0.25 0.125 C 0 0.125 -0.1875 0.0351562 -0.3125 -0.140625 C -0.445312 -0.328125 -0.515625 -0.550781 -0.515625 -0.8125 C -0.484375 -1.238281 -0.394531 -1.492188 -0.25 -1.578125 C -0.113281 -1.660156 0.0507812 -1.703125 0.25 -1.703125 C 0.445312 -1.703125 0.578125 -1.703125 0.640625 -1.703125 C 1.492188 -1.703125 2.117188 -1.921875 2.515625 -2.359375 C 2.910156 -2.804688 3.226562 -3.304688 3.46875 -3.859375 C 3.707031 -4.410156 3.875 -4.785156 3.96875 -4.984375 L 11.421875 -22.625 C 11.585938 -23.050781 11.671875 -23.390625 11.671875 -23.640625 C 11.671875 -24.160156 11.472656 -24.53125 11.078125 -24.75 C 10.679688 -24.976562 10.128906 -25.164062 9.421875 -25.3125 C 8.929688 -25.394531 8.628906 -25.476562 8.515625 -25.5625 C 8.398438 -25.644531 8.34375 -25.890625 8.34375 -26.296875 C 8.34375 -26.628906 8.4375 -26.851562 8.625 -26.96875 C 8.8125 -27.082031 9.101562 -27.140625 9.5 -27.140625 C 10.914062 -27.140625 12.039062 -27.03125 12.875 -26.8125 C 13.71875 -26.601562 14.453125 -26.175781 15.078125 -25.53125 C 15.703125 -24.894531 16.285156 -23.925781 16.828125 -22.625 L 23.984375 -4.984375 C 24.410156 -3.898438 24.820312 -3.085938 25.21875 -2.546875 C 25.625 -2.015625 26.222656 -1.734375 27.015625 -1.703125 L 27.265625 -1.703125 C 27.554688 -1.703125 27.753906 -1.648438 27.859375 -1.546875 C 27.972656 -1.453125 28.046875 -1.207031 28.078125 -0.8125 C 28.078125 -0.550781 28.015625 -0.328125 27.890625 -0.140625 C 27.765625 0.0351562 27.570312 0.125 27.3125 0.125 C 25.488281 0.0390625 23.925781 0 22.625 0 C 20.914062 0 19.15625 0.0390625 17.34375 0.125 C 17.082031 0.125 16.890625 0.0351562 16.765625 -0.140625 C 16.640625 -0.328125 16.578125 -0.550781 16.578125 -0.8125 C 16.609375 -1.207031 16.675781 -1.453125 16.78125 -1.546875 C 16.894531 -1.648438 17.097656 -1.703125 17.390625 -1.703125 C 18.347656 -1.703125 19.023438 -1.796875 19.421875 -1.984375 C 19.828125 -2.171875 20.03125 -2.503906 20.03125 -2.984375 C 20.03125 -3.347656 19.859375 -4.015625 19.515625 -4.984375 L 18.0625 -8.515625 L 7.546875 -8.515625 C 6.835938 -6.753906 6.429688 -5.734375 6.328125 -5.453125 C 6.222656 -5.171875 6.171875 -5.015625 6.171875 -4.984375 C 5.835938 -3.898438 5.671875 -3.203125 5.671875 -2.890625 C 5.671875 -2.410156 5.882812 -2.09375 6.3125 -1.9375 C 6.738281 -1.78125 7.546875 -1.703125 8.734375 -1.703125 L 8.984375 -1.703125 C 9.273438 -1.703125 9.472656 -1.648438 9.578125 -1.546875 C 9.691406 -1.453125 9.765625 -1.207031 9.796875 -0.8125 C 9.796875 -0.550781 9.734375 -0.328125 9.609375 -0.140625 C 9.484375 0.0351562 9.289062 0.125 9.03125 0.125 C 7.21875 0.0390625 5.671875 0 4.390625 0 C 3.484375 0 2.101562 0.0390625 0.25 0.125 Z M 8.34375 -10.359375 L 17.296875 -10.359375 L 13 -21.3125 L 12.875 -21.3125 Z M 8.34375 -10.359375 "/></g></g></g><g fill="#000000" fill-opacity="1"><g transform="translate(99.145773, 47.885921)"><g><path d="M 11.296875 0.859375 C 8.304688 0.859375 6.023438 0.335938 4.453125 -0.703125 C 2.878906 -1.742188 2.09375 -3.269531 2.09375 -5.28125 C 2.09375 -6.300781 2.4375 -7.144531 3.125 -7.8125 C 3.820312 -8.476562 4.726562 -8.8125 5.84375 -8.8125 C 6.488281 -8.789062 6.984375 -8.628906 7.328125 -8.328125 C 7.671875 -8.023438 7.84375 -7.75 7.84375 -7.5 C 7.84375 -7.46875 7.695312 -7.367188 7.40625 -7.203125 C 7.125 -7.035156 6.867188 -6.78125 6.640625 -6.4375 C 6.421875 -6.09375 6.3125 -5.625 6.3125 -5.03125 C 6.3125 -3.695312 6.710938 -2.664062 7.515625 -1.9375 C 8.328125 -1.21875 9.585938 -0.859375 11.296875 -0.859375 C 12.453125 -0.859375 13.472656 -1.082031 14.359375 -1.53125 C 15.242188 -1.988281 15.921875 -2.59375 16.390625 -3.34375 C 16.859375 -4.09375 17.09375 -4.878906 17.09375 -5.703125 C 17.09375 -6.734375 16.800781 -7.613281 16.21875 -8.34375 C 15.632812 -9.082031 14.914062 -9.703125 14.0625 -10.203125 C 13.207031 -10.703125 12.039062 -11.28125 10.5625 -11.9375 C 8.863281 -12.695312 7.488281 -13.390625 6.4375 -14.015625 C 5.382812 -14.640625 4.488281 -15.46875 3.75 -16.5 C 3.007812 -17.539062 2.640625 -18.832031 2.640625 -20.375 C 2.640625 -22.84375 3.484375 -24.6875 5.171875 -25.90625 C 6.867188 -27.125 9.09375 -27.734375 11.84375 -27.734375 C 14 -27.734375 15.878906 -27.28125 17.484375 -26.375 C 19.097656 -25.46875 19.90625 -24.132812 19.90625 -22.375 C 19.90625 -21.351562 19.554688 -20.503906 18.859375 -19.828125 C 18.160156 -19.160156 17.257812 -18.828125 16.15625 -18.828125 C 15.5 -18.859375 15 -19.019531 14.65625 -19.3125 C 14.3125 -19.613281 14.140625 -19.894531 14.140625 -20.15625 C 14.140625 -20.1875 14.332031 -20.285156 14.71875 -20.453125 C 15.101562 -20.617188 15.441406 -20.875 15.734375 -21.21875 C 16.035156 -21.5625 16.1875 -22.03125 16.1875 -22.625 C 16.1875 -23.675781 15.78125 -24.5 14.96875 -25.09375 C 14.164062 -25.6875 13.140625 -25.984375 11.890625 -25.984375 C 10.148438 -25.984375 8.832031 -25.578125 7.9375 -24.765625 C 7.050781 -23.960938 6.609375 -22.960938 6.609375 -21.765625 C 6.609375 -20.773438 6.875 -19.945312 7.40625 -19.28125 C 7.945312 -18.613281 8.816406 -17.953125 10.015625 -17.296875 C 10.984375 -16.785156 12.035156 -16.273438 13.171875 -15.765625 C 14.984375 -14.941406 16.421875 -14.1875 17.484375 -13.5 C 18.554688 -12.820312 19.453125 -11.925781 20.171875 -10.8125 C 20.898438 -9.707031 21.265625 -8.332031 21.265625 -6.6875 C 21.265625 -5.269531 20.816406 -3.984375 19.921875 -2.828125 C 19.023438 -1.679688 17.816406 -0.78125 16.296875 -0.125 C 14.773438 0.53125 13.109375 0.859375 11.296875 0.859375 Z M 11.296875 0.859375 "/></g></g></g><g fill="#000000" fill-opacity="1"><g transform="translate(122.369811, 47.885921)"><g><path d="M 15.25 0.859375 C 12.832031 0.859375 10.625 0.285156 8.625 -0.859375 C 6.625 -2.015625 5.035156 -3.65625 3.859375 -5.78125 C 2.679688 -7.914062 2.09375 -10.40625 2.09375 -13.25 C 2.09375 -16.125 2.660156 -18.648438 3.796875 -20.828125 C 4.929688 -23.015625 6.546875 -24.710938 8.640625 -25.921875 C 10.742188 -27.128906 13.203125 -27.734375 16.015625 -27.734375 C 18.460938 -27.734375 20.632812 -27.242188 22.53125 -26.265625 C 24.4375 -25.285156 25.390625 -23.773438 25.390625 -21.734375 C 25.421875 -20.453125 25.035156 -19.363281 24.234375 -18.46875 C 23.441406 -17.570312 22.378906 -17.125 21.046875 -17.125 C 20.535156 -17.125 20.101562 -17.21875 19.75 -17.40625 C 19.394531 -17.59375 19.128906 -17.8125 18.953125 -18.0625 C 18.785156 -18.320312 18.71875 -18.519531 18.75 -18.65625 C 18.75 -18.71875 18.945312 -18.875 19.34375 -19.125 C 19.738281 -19.382812 20.09375 -19.738281 20.40625 -20.1875 C 20.71875 -20.644531 20.875 -21.203125 20.875 -21.859375 C 20.875 -23.140625 20.441406 -24.15625 19.578125 -24.90625 C 18.710938 -25.65625 17.515625 -26.03125 15.984375 -26.03125 C 14.242188 -26.03125 12.695312 -25.539062 11.34375 -24.5625 C 10 -23.582031 8.953125 -22.144531 8.203125 -20.25 C 7.453125 -18.363281 7.078125 -16.113281 7.078125 -13.5 C 7.078125 -11.226562 7.476562 -9.160156 8.28125 -7.296875 C 9.09375 -5.441406 10.238281 -3.96875 11.71875 -2.875 C 13.195312 -1.78125 14.882812 -1.234375 16.78125 -1.234375 C 18.320312 -1.234375 19.640625 -1.550781 20.734375 -2.1875 C 21.828125 -2.832031 22.8125 -3.863281 23.6875 -5.28125 C 23.832031 -5.539062 24.03125 -5.671875 24.28125 -5.671875 C 24.507812 -5.671875 24.765625 -5.582031 25.046875 -5.40625 C 25.503906 -5.09375 25.734375 -4.78125 25.734375 -4.46875 C 25.734375 -4.300781 25.675781 -4.160156 25.5625 -4.046875 C 24.488281 -2.679688 23.472656 -1.648438 22.515625 -0.953125 C 21.566406 -0.265625 20.535156 0.207031 19.421875 0.46875 C 18.316406 0.726562 16.925781 0.859375 15.25 0.859375 Z M 15.25 0.859375 "/></g></g></g><g fill="#000000" fill-opacity="1"><g transform="translate(149.599467, 47.885921)"><g><path d="M 2.5625 0.125 C 2.332031 0.125 2.148438 0.0351562 2.015625 -0.140625 C 1.890625 -0.328125 1.828125 -0.550781 1.828125 -0.8125 C 1.859375 -1.238281 1.941406 -1.492188 2.078125 -1.578125 C 2.222656 -1.660156 2.492188 -1.703125 2.890625 -1.703125 C 3.722656 -1.703125 4.335938 -1.847656 4.734375 -2.140625 C 5.128906 -2.441406 5.375 -2.8125 5.46875 -3.25 C 5.570312 -3.695312 5.640625 -4.273438 5.671875 -4.984375 L 5.671875 -21.90625 C 5.640625 -22.613281 5.570312 -23.1875 5.46875 -23.625 C 5.375 -24.0625 5.128906 -24.429688 4.734375 -24.734375 C 4.335938 -25.035156 3.722656 -25.1875 2.890625 -25.1875 L 2.640625 -25.1875 C 2.359375 -25.1875 2.160156 -25.234375 2.046875 -25.328125 C 1.929688 -25.429688 1.859375 -25.679688 1.828125 -26.078125 C 1.828125 -26.328125 1.890625 -26.546875 2.015625 -26.734375 C 2.148438 -26.921875 2.332031 -27.015625 2.5625 -27.015625 C 4.4375 -26.929688 6.125 -26.890625 7.625 -26.890625 L 21 -26.890625 C 21.738281 -26.890625 22.109375 -26.546875 22.109375 -25.859375 L 22.234375 -19.90625 C 22.234375 -19.644531 22.101562 -19.4375 21.84375 -19.28125 C 21.59375 -19.125 21.34375 -19.046875 21.09375 -19.046875 C 20.75 -19.046875 20.445312 -19.109375 20.1875 -19.234375 C 19.9375 -19.367188 19.796875 -19.5625 19.765625 -19.8125 C 19.546875 -21.207031 19.300781 -22.265625 19.03125 -22.984375 C 18.757812 -23.710938 18.359375 -24.253906 17.828125 -24.609375 C 17.304688 -24.960938 16.5625 -25.15625 15.59375 -25.1875 L 9.890625 -25.1875 L 9.890625 -14.359375 L 17.59375 -14.359375 C 17.789062 -14.328125 17.945312 -14.21875 18.0625 -14.03125 C 18.175781 -13.851562 18.234375 -13.632812 18.234375 -13.375 C 18.234375 -13.144531 18.175781 -12.945312 18.0625 -12.78125 C 17.945312 -12.613281 17.789062 -12.53125 17.59375 -12.53125 L 9.890625 -12.53125 L 9.890625 -4.46875 C 9.941406 -3.875 10.007812 -3.398438 10.09375 -3.046875 C 10.175781 -2.691406 10.429688 -2.367188 10.859375 -2.078125 C 11.285156 -1.796875 11.957031 -1.671875 12.875 -1.703125 L 16.78125 -1.703125 C 17.78125 -1.734375 18.535156 -1.894531 19.046875 -2.1875 C 19.554688 -2.488281 19.957031 -2.953125 20.25 -3.578125 C 20.550781 -4.203125 20.914062 -5.222656 21.34375 -6.640625 C 21.539062 -7.148438 22.023438 -7.351562 22.796875 -7.25 C 23.078125 -7.1875 23.320312 -7.066406 23.53125 -6.890625 C 23.75 -6.722656 23.84375 -6.515625 23.8125 -6.265625 L 22.96875 -0.890625 C 22.882812 -0.523438 22.753906 -0.285156 22.578125 -0.171875 C 22.410156 -0.0546875 22.128906 0 21.734375 0 L 7.671875 0 C 6.140625 0 4.4375 0.0390625 2.5625 0.125 Z M 2.5625 0.125 "/></g></g></g><g fill="#000000" fill-opacity="1"><g transform="translate(174.911537, 47.885921)"><g><path d="M 2.640625 0.125 C 2.390625 0.125 2.195312 0.0351562 2.0625 -0.140625 C 1.9375 -0.328125 1.875 -0.550781 1.875 -0.8125 C 1.90625 -1.238281 1.988281 -1.492188 2.125 -1.578125 C 2.269531 -1.660156 2.539062 -1.703125 2.9375 -1.703125 C 3.757812 -1.703125 4.363281 -1.847656 4.75 -2.140625 C 5.132812 -2.441406 5.367188 -2.796875 5.453125 -3.203125 C 5.535156 -3.617188 5.59375 -4.210938 5.625 -4.984375 L 5.703125 -21.90625 C 5.703125 -22.75 5.609375 -23.390625 5.421875 -23.828125 C 5.242188 -24.273438 4.957031 -24.597656 4.5625 -24.796875 C 4.164062 -24.992188 3.597656 -25.164062 2.859375 -25.3125 C 2.367188 -25.394531 2.066406 -25.476562 1.953125 -25.5625 C 1.847656 -25.644531 1.796875 -25.890625 1.796875 -26.296875 C 1.796875 -26.628906 1.882812 -26.851562 2.0625 -26.96875 C 2.25 -27.082031 2.539062 -27.140625 2.9375 -27.140625 C 4.695312 -27.140625 6.085938 -27.019531 7.109375 -26.78125 C 8.140625 -26.539062 9.046875 -26.109375 9.828125 -25.484375 C 10.609375 -24.859375 11.46875 -23.90625 12.40625 -22.625 L 24.078125 -7.28125 L 24.203125 -7.28125 L 24.109375 -21.90625 C 24.085938 -22.664062 24.03125 -23.25 23.9375 -23.65625 C 23.851562 -24.070312 23.617188 -24.429688 23.234375 -24.734375 C 22.859375 -25.035156 22.257812 -25.1875 21.4375 -25.1875 L 21.171875 -25.1875 C 20.890625 -25.1875 20.6875 -25.234375 20.5625 -25.328125 C 20.4375 -25.429688 20.359375 -25.679688 20.328125 -26.078125 C 20.328125 -26.328125 20.394531 -26.546875 20.53125 -26.734375 C 20.675781 -26.921875 20.863281 -27.015625 21.09375 -27.015625 C 22.90625 -26.929688 24.269531 -26.890625 25.1875 -26.890625 C 25.71875 -26.890625 26.753906 -26.914062 28.296875 -26.96875 L 29.1875 -27.015625 C 29.445312 -27.015625 29.640625 -26.921875 29.765625 -26.734375 C 29.890625 -26.546875 29.953125 -26.328125 29.953125 -26.078125 C 29.921875 -25.648438 29.832031 -25.394531 29.6875 -25.3125 C 29.550781 -25.226562 29.285156 -25.1875 28.890625 -25.1875 C 28.066406 -25.1875 27.460938 -25.035156 27.078125 -24.734375 C 26.691406 -24.429688 26.457031 -24.070312 26.375 -23.65625 C 26.289062 -23.25 26.234375 -22.664062 26.203125 -21.90625 L 26.125 -0.421875 C 26.09375 -0.0546875 25.734375 0.125 25.046875 0.125 C 24.515625 0.125 24.101562 -0.0546875 23.8125 -0.421875 L 7.75 -21.90625 L 7.625 -21.90625 L 7.71875 -4.984375 C 7.738281 -4.210938 7.789062 -3.617188 7.875 -3.203125 C 7.96875 -2.796875 8.203125 -2.441406 8.578125 -2.140625 C 8.960938 -1.847656 9.566406 -1.703125 10.390625 -1.703125 L 10.65625 -1.703125 C 10.9375 -1.703125 11.140625 -1.648438 11.265625 -1.546875 C 11.398438 -1.453125 11.476562 -1.207031 11.5 -0.8125 C 11.5 -0.550781 11.4375 -0.328125 11.3125 -0.140625 C 11.1875 0.0351562 10.992188 0.125 10.734375 0.125 C 8.921875 0.0390625 7.546875 0 6.609375 0 C 6.035156 0 5.039062 0.0234375 3.625 0.078125 Z M 2.640625 0.125 "/></g></g></g><g fill="#000000" fill-opacity="1"><g transform="translate(206.317255, 47.885921)"><g><path d="M 2.5625 0.125 C 2.332031 0.125 2.148438 0.0351562 2.015625 -0.140625 C 1.890625 -0.328125 1.828125 -0.550781 1.828125 -0.8125 C 1.859375 -1.238281 1.941406 -1.492188 2.078125 -1.578125 C 2.222656 -1.660156 2.492188 -1.703125 2.890625 -1.703125 C 3.722656 -1.703125 4.335938 -1.847656 4.734375 -2.140625 C 5.128906 -2.441406 5.375 -2.8125 5.46875 -3.25 C 5.570312 -3.695312 5.640625 -4.273438 5.671875 -4.984375 L 5.671875 -21.90625 C 5.640625 -22.613281 5.570312 -23.1875 5.46875 -23.625 C 5.375 -24.0625 5.128906 -24.429688 4.734375 -24.734375 C 4.335938 -25.035156 3.722656 -25.1875 2.890625 -25.1875 L 2.640625 -25.1875 C 2.359375 -25.1875 2.160156 -25.234375 2.046875 -25.328125 C 1.929688 -25.429688 1.859375 -25.679688 1.828125 -26.078125 C 1.828125 -26.328125 1.890625 -26.546875 2.015625 -26.734375 C 2.148438 -26.921875 2.332031 -27.015625 2.5625 -27.015625 C 4.4375 -26.929688 6.125 -26.890625 7.625 -26.890625 L 14.28125 -26.890625 C 17 -26.890625 19.472656 -26.34375 21.703125 -25.25 C 23.929688 -24.15625 25.691406 -22.582031 26.984375 -20.53125 C 28.285156 -18.488281 28.9375 -16.078125 28.9375 -13.296875 C 28.9375 -10.398438 28.203125 -7.945312 26.734375 -5.9375 C 25.273438 -3.9375 23.375 -2.445312 21.03125 -1.46875 C 18.6875 -0.488281 16.175781 0 13.5 0 L 7.625 0 C 6.125 0 4.4375 0.0390625 2.5625 0.125 Z M 14.140625 -1.578125 C 17.460938 -1.578125 19.898438 -2.601562 21.453125 -4.65625 C 23.003906 -6.71875 23.78125 -9.597656 23.78125 -13.296875 C 23.78125 -15.617188 23.359375 -17.695312 22.515625 -19.53125 C 21.679688 -21.363281 20.46875 -22.789062 18.875 -23.8125 C 17.28125 -24.84375 15.390625 -25.359375 13.203125 -25.359375 L 9.890625 -25.3125 L 9.890625 -4.46875 C 9.890625 -3.363281 10.222656 -2.601562 10.890625 -2.1875 C 11.554688 -1.78125 12.640625 -1.578125 14.140625 -1.578125 Z M 14.140625 -1.578125 "/></g></g></g></svg>