<svg xmlns="http://www.w3.org/2000/svg" xmlns:xlink="http://www.w3.org/1999/xlink" width="350" zoomAndPan="magnify" viewBox="0 0 262.5 67.499998" height="90" preserveAspectRatio="xMidYMid meet" version="1.0"><defs><g/><clipPath id="669199749b"><path d="M 51 24 L 64.878906 24 L 64.878906 36 L 51 36 Z M 51 24 " clip-rule="nonzero"/></clipPath><clipPath id="a17c601995"><path d="M 51 24 L 64.878906 24 L 64.878906 35 L 51 35 Z M 51 24 " clip-rule="nonzero"/></clipPath><clipPath id="547fc9714a"><path d="M 24.636719 30 L 49 30 L 49 51.125 L 24.636719 51.125 Z M 24.636719 30 " clip-rule="nonzero"/></clipPath><clipPath id="cf0a584fa0"><path d="M 24.636719 30 L 49 30 L 49 51 L 24.636719 51 Z M 24.636719 30 " clip-rule="nonzero"/></clipPath></defs><path stroke-linecap="butt" transform="matrix(0.0844238, 0, 0, 0.0844238, 22.997185, 12.237198)" fill="none" stroke-linejoin="miter" d="M 181.271043 52.760081 C 199.686311 44.570376 220.091168 50.168988 237.534776 58.775118 C 257.014243 68.954412 276.910135 83.760657 284.914762 106.987955 C 288.477514 116.473206 286.117769 127.531621 279.963923 134.934743 C 275.105624 139.561695 268.257735 138.266149 262.427776 137.618375 C 249.240964 134.472048 241.190068 121.424044 230.964504 112.910453 C 222.080757 104.211784 212.641776 94.819072 200.611701 92.413057 C 189.877173 90.423468 180.577 98.335555 173.729112 106.52526 C 163.36474 120.683732 156.840738 137.710914 151.751091 154.923175 C 148.465955 169.914498 141.386719 184.258049 142.26584 200.082224 C 141.24791 185.461056 137.500079 171.256314 137.129923 156.588877 C 136.48215 137.664645 138.610548 118.647873 142.913613 100.325144 C 150.733161 80.706869 162.855775 61.319941 181.271043 52.760081 Z M 181.271043 52.760081 " stroke="#000000" stroke-width="0.1" stroke-opacity="1" stroke-miterlimit="10"/><path fill="#ffffff" d="M 38.300781 16.691406 C 39.855469 16 41.578125 16.472656 43.050781 17.199219 C 44.695312 18.058594 46.375 19.308594 47.050781 21.269531 C 47.351562 22.070312 47.152344 23.003906 46.632812 23.628906 C 46.222656 24.019531 45.644531 23.910156 45.152344 23.855469 C 44.039062 23.589844 43.359375 22.488281 42.496094 21.769531 C 41.746094 21.035156 40.949219 20.242188 39.933594 20.039062 C 39.027344 19.871094 38.242188 20.539062 37.664062 21.230469 C 36.789062 22.425781 36.238281 23.863281 35.808594 25.316406 C 35.53125 26.582031 34.933594 27.792969 35.007812 29.128906 C 34.921875 27.894531 34.605469 26.695312 34.574219 25.457031 C 34.519531 23.859375 34.699219 22.253906 35.0625 20.707031 C 35.722656 19.050781 36.746094 17.414062 38.300781 16.691406 Z M 38.300781 16.691406 " fill-opacity="1" fill-rule="nonzero"/><path stroke-linecap="butt" transform="matrix(0.0844238, 0, 0, 0.0844238, 22.997185, 12.237198)" fill="none" stroke-linejoin="miter" d="M 349.460738 65.29912 C 362.786359 63.587148 376.852292 69.417107 385.828579 80.568061 C 391.889885 88.896574 395.961603 99.399754 395.915333 110.226821 C 394.712326 123.367364 388.743558 136.369098 378.841882 143.957299 C 367.089424 153.211203 351.080171 155.108253 337.893359 148.72306 C 318.275083 140.440816 306.892782 112.401488 316.933267 91.21005 C 322.624418 76.77396 335.672422 67.427518 349.460738 65.29912 Z M 349.460738 65.29912 " stroke="#000000" stroke-width="0.1" stroke-opacity="1" stroke-miterlimit="10"/><path fill="#ffffff" d="M 52.5 17.75 C 53.625 17.605469 54.8125 18.097656 55.570312 19.039062 C 56.082031 19.742188 56.425781 20.628906 56.421875 21.542969 C 56.320312 22.652344 55.816406 23.75 54.980469 24.390625 C 53.988281 25.171875 52.636719 25.332031 51.523438 24.792969 C 49.867188 24.09375 48.90625 21.726562 49.753906 19.9375 C 50.234375 18.71875 51.335938 17.929688 52.5 17.75 Z M 52.5 17.75 " fill-opacity="1" fill-rule="nonzero"/><g clip-path="url(#669199749b)"><path stroke-linecap="butt" transform="matrix(0.0844238, 0, 0, 0.0844238, 22.997185, 12.237198)" fill="none" stroke-linejoin="miter" d="M 488.454368 141.828901 C 489.24095 141.782632 490.073801 141.736362 490.860383 141.782632 C 490.536496 149.60218 492.341007 157.375459 491.18427 165.148738 C 489.333489 178.520629 484.521459 191.105937 479.246734 203.228551 C 467.725624 231.823113 445.932682 255.420566 419.512787 266.52525 C 407.390174 271.291011 393.000354 270.920855 382.034478 262.77742 C 364.359523 249.960763 350.478668 230.388757 344.417361 207.762964 C 340.530721 195.594081 340.391913 180.926644 347.008454 169.868229 C 350.339859 165.00993 354.828002 159.596396 360.79677 159.966552 C 366.950616 160.614325 372.502958 164.732312 376.204519 170.099576 C 384.995727 182.916233 386.846508 199.619529 394.064553 213.315306 C 400.12586 222.106514 409.934997 232.609694 420.762064 227.427508 C 433.810068 221.319932 444.822213 210.863021 455.417933 200.637458 C 468.836093 187.820802 478.182535 170.70108 485.631927 153.072394 C 487.112552 149.509641 488.176751 145.76181 488.454368 141.828901 Z M 488.454368 141.828901 " stroke="#000000" stroke-width="0.1" stroke-opacity="1" stroke-miterlimit="10"/></g><g clip-path="url(#a17c601995)"><path fill="#ffffff" d="M 64.234375 24.210938 C 64.300781 24.207031 64.371094 24.203125 64.4375 24.207031 C 64.410156 24.867188 64.5625 25.523438 64.464844 26.179688 C 64.308594 27.308594 63.902344 28.371094 63.457031 29.394531 C 62.484375 31.808594 60.644531 33.800781 58.414062 34.738281 C 57.390625 35.140625 56.175781 35.109375 55.25 34.421875 C 53.757812 33.339844 52.585938 31.6875 52.074219 29.777344 C 51.746094 28.75 51.734375 27.511719 52.292969 26.578125 C 52.574219 26.167969 52.953125 25.710938 53.457031 25.742188 C 53.976562 25.796875 54.445312 26.144531 54.757812 26.597656 C 55.5 27.679688 55.65625 29.089844 56.265625 30.246094 C 56.777344 30.988281 57.605469 31.875 58.519531 31.4375 C 59.621094 30.921875 60.550781 30.039062 61.445312 29.175781 C 62.578125 28.09375 63.367188 26.648438 63.996094 25.160156 C 64.121094 24.859375 64.210938 24.542969 64.234375 24.210938 Z M 64.234375 24.210938 " fill-opacity="1" fill-rule="nonzero"/></g><g clip-path="url(#547fc9714a)"><path stroke-linecap="butt" transform="matrix(0.0844238, 0, 0, 0.0844238, 22.997185, 12.237198)" fill="none" stroke-linejoin="miter" d="M 162.39308 223.818486 C 170.166359 216.507902 181.641199 217.201945 190.663755 220.857237 C 199.73258 225.160302 209.264101 228.445438 217.546344 234.553014 C 230.40927 243.714378 242.716962 253.986211 253.682837 265.784938 C 266.129338 276.982161 277.650447 289.428662 287.552124 303.402056 C 294.816438 312.933576 302.450909 324.08453 301.895674 337.271342 C 296.482141 356.519462 281.675895 370.631664 266.221877 380.024376 C 245.77075 391.591756 222.913608 396.172438 201.028127 403.297944 C 191.589145 406.675618 181.641199 407.924895 171.832061 409.127903 C 160.681108 409.775676 149.483884 412.320499 138.332931 410.145832 C 145.458436 404.362142 154.110836 401.817319 161.930385 397.560523 C 184.46364 386.733456 205.655078 372.852601 227.58683 360.729988 C 236.887003 355.73288 246.002098 349.347686 251.323092 339.168393 C 251.045475 336.947456 250.767858 334.680249 250.490241 332.459313 C 244.243856 325.426346 236.516846 320.429238 228.558489 316.172443 C 219.304586 324.686034 208.616328 331.163766 200.056467 340.695287 C 176.644091 360.082214 150.733161 375.304886 125.747622 392.054451 C 92.155953 413.060812 60.368794 437.537386 26.129351 457.29447 C 24.093493 458.127322 22.057634 458.728825 19.975506 459.145251 C 33.116049 443.228537 48.431259 429.671568 61.386724 413.523507 C 80.079609 391.776834 98.772494 369.983891 118.25196 349.116339 C 138.841895 327.092049 158.830327 304.373716 177.939638 280.729992 C 169.888742 272.447749 159.4781 264.813278 157.072085 252.135431 C 154.71234 242.557641 156.100425 231.221609 162.39308 223.818486 Z M 162.39308 223.818486 " stroke="#000000" stroke-width="0.1" stroke-opacity="1" stroke-miterlimit="10"/></g><g clip-path="url(#cf0a584fa0)"><path fill="#ffffff" d="M 36.707031 31.132812 C 37.363281 30.515625 38.332031 30.574219 39.09375 30.882812 C 39.859375 31.246094 40.664062 31.523438 41.363281 32.039062 C 42.449219 32.8125 43.488281 33.679688 44.414062 34.675781 C 45.464844 35.621094 46.4375 36.671875 47.273438 37.851562 C 47.886719 38.65625 48.53125 39.597656 48.484375 40.710938 C 48.027344 42.335938 46.777344 43.527344 45.472656 44.320312 C 43.746094 45.296875 41.816406 45.683594 39.96875 46.285156 C 39.171875 46.570312 38.332031 46.675781 37.503906 46.777344 C 36.5625 46.832031 35.617188 47.046875 34.675781 46.863281 C 35.277344 46.375 36.007812 46.160156 36.667969 45.800781 C 38.570312 44.886719 40.359375 43.714844 42.210938 42.691406 C 42.996094 42.269531 43.765625 41.730469 44.214844 40.871094 C 44.191406 40.683594 44.167969 40.492188 44.144531 40.304688 C 43.617188 39.710938 42.964844 39.289062 42.292969 38.929688 C 41.511719 39.648438 40.609375 40.195312 39.886719 41 C 37.910156 42.636719 35.722656 43.921875 33.613281 45.335938 C 30.777344 47.109375 28.09375 49.175781 25.203125 50.84375 C 25.03125 50.914062 24.859375 50.964844 24.683594 51 C 25.792969 49.65625 27.085938 48.511719 28.179688 47.148438 C 29.757812 45.3125 31.335938 43.472656 32.980469 41.710938 C 34.71875 39.851562 36.40625 37.933594 38.019531 35.9375 C 37.339844 35.238281 36.460938 34.59375 36.257812 33.523438 C 36.058594 32.714844 36.175781 31.757812 36.707031 31.132812 Z M 36.707031 31.132812 " fill-opacity="1" fill-rule="nonzero"/></g><g fill="#ffffff" fill-opacity="1"><g transform="translate(71.319541, 47.885921)"><g><path d="M 0.25 0.125 C 0 0.125 -0.1875 0.0351562 -0.3125 -0.140625 C -0.445312 -0.328125 -0.515625 -0.550781 -0.515625 -0.8125 C -0.484375 -1.238281 -0.394531 -1.492188 -0.25 -1.578125 C -0.113281 -1.660156 0.0507812 -1.703125 0.25 -1.703125 C 0.445312 -1.703125 0.578125 -1.703125 0.640625 -1.703125 C 1.492188 -1.703125 2.117188 -1.921875 2.515625 -2.359375 C 2.910156 -2.804688 3.226562 -3.304688 3.46875 -3.859375 C 3.707031 -4.410156 3.875 -4.785156 3.96875 -4.984375 L 11.421875 -22.625 C 11.585938 -23.050781 11.671875 -23.390625 11.671875 -23.640625 C 11.671875 -24.160156 11.472656 -24.53125 11.078125 -24.75 C 10.679688 -24.976562 10.128906 -25.164062 9.421875 -25.3125 C 8.929688 -25.394531 8.628906 -25.476562 8.515625 -25.5625 C 8.398438 -25.644531 8.34375 -25.890625 8.34375 -26.296875 C 8.34375 -26.628906 8.4375 -26.851562 8.625 -26.96875 C 8.8125 -27.082031 9.101562 -27.140625 9.5 -27.140625 C 10.914062 -27.140625 12.039062 -27.03125 12.875 -26.8125 C 13.71875 -26.601562 14.453125 -26.175781 15.078125 -25.53125 C 15.703125 -24.894531 16.285156 -23.925781 16.828125 -22.625 L 23.984375 -4.984375 C 24.410156 -3.898438 24.820312 -3.085938 25.21875 -2.546875 C 25.625 -2.015625 26.222656 -1.734375 27.015625 -1.703125 L 27.265625 -1.703125 C 27.554688 -1.703125 27.753906 -1.648438 27.859375 -1.546875 C 27.972656 -1.453125 28.046875 -1.207031 28.078125 -0.8125 C 28.078125 -0.550781 28.015625 -0.328125 27.890625 -0.140625 C 27.765625 0.0351562 27.570312 0.125 27.3125 0.125 C 25.488281 0.0390625 23.925781 0 22.625 0 C 20.914062 0 19.15625 0.0390625 17.34375 0.125 C 17.082031 0.125 16.890625 0.0351562 16.765625 -0.140625 C 16.640625 -0.328125 16.578125 -0.550781 16.578125 -0.8125 C 16.609375 -1.207031 16.675781 -1.453125 16.78125 -1.546875 C 16.894531 -1.648438 17.097656 -1.703125 17.390625 -1.703125 C 18.347656 -1.703125 19.023438 -1.796875 19.421875 -1.984375 C 19.828125 -2.171875 20.03125 -2.503906 20.03125 -2.984375 C 20.03125 -3.347656 19.859375 -4.015625 19.515625 -4.984375 L 18.0625 -8.515625 L 7.546875 -8.515625 C 6.835938 -6.753906 6.429688 -5.734375 6.328125 -5.453125 C 6.222656 -5.171875 6.171875 -5.015625 6.171875 -4.984375 C 5.835938 -3.898438 5.671875 -3.203125 5.671875 -2.890625 C 5.671875 -2.410156 5.882812 -2.09375 6.3125 -1.9375 C 6.738281 -1.78125 7.546875 -1.703125 8.734375 -1.703125 L 8.984375 -1.703125 C 9.273438 -1.703125 9.472656 -1.648438 9.578125 -1.546875 C 9.691406 -1.453125 9.765625 -1.207031 9.796875 -0.8125 C 9.796875 -0.550781 9.734375 -0.328125 9.609375 -0.140625 C 9.484375 0.0351562 9.289062 0.125 9.03125 0.125 C 7.21875 0.0390625 5.671875 0 4.390625 0 C 3.484375 0 2.101562 0.0390625 0.25 0.125 Z M 8.34375 -10.359375 L 17.296875 -10.359375 L 13 -21.3125 L 12.875 -21.3125 Z M 8.34375 -10.359375 "/></g></g></g><g fill="#ffffff" fill-opacity="1"><g transform="translate(99.145773, 47.885921)"><g><path d="M 11.296875 0.859375 C 8.304688 0.859375 6.023438 0.335938 4.453125 -0.703125 C 2.878906 -1.742188 2.09375 -3.269531 2.09375 -5.28125 C 2.09375 -6.300781 2.4375 -7.144531 3.125 -7.8125 C 3.820312 -8.476562 4.726562 -8.8125 5.84375 -8.8125 C 6.488281 -8.789062 6.984375 -8.628906 7.328125 -8.328125 C 7.671875 -8.023438 7.84375 -7.75 7.84375 -7.5 C 7.84375 -7.46875 7.695312 -7.367188 7.40625 -7.203125 C 7.125 -7.035156 6.867188 -6.78125 6.640625 -6.4375 C 6.421875 -6.09375 6.3125 -5.625 6.3125 -5.03125 C 6.3125 -3.695312 6.710938 -2.664062 7.515625 -1.9375 C 8.328125 -1.21875 9.585938 -0.859375 11.296875 -0.859375 C 12.453125 -0.859375 13.472656 -1.082031 14.359375 -1.53125 C 15.242188 -1.988281 15.921875 -2.59375 16.390625 -3.34375 C 16.859375 -4.09375 17.09375 -4.878906 17.09375 -5.703125 C 17.09375 -6.734375 16.800781 -7.613281 16.21875 -8.34375 C 15.632812 -9.082031 14.914062 -9.703125 14.0625 -10.203125 C 13.207031 -10.703125 12.039062 -11.28125 10.5625 -11.9375 C 8.863281 -12.695312 7.488281 -13.390625 6.4375 -14.015625 C 5.382812 -14.640625 4.488281 -15.46875 3.75 -16.5 C 3.007812 -17.539062 2.640625 -18.832031 2.640625 -20.375 C 2.640625 -22.84375 3.484375 -24.6875 5.171875 -25.90625 C 6.867188 -27.125 9.09375 -27.734375 11.84375 -27.734375 C 14 -27.734375 15.878906 -27.28125 17.484375 -26.375 C 19.097656 -25.46875 19.90625 -24.132812 19.90625 -22.375 C 19.90625 -21.351562 19.554688 -20.503906 18.859375 -19.828125 C 18.160156 -19.160156 17.257812 -18.828125 16.15625 -18.828125 C 15.5 -18.859375 15 -19.019531 14.65625 -19.3125 C 14.3125 -19.613281 14.140625 -19.894531 14.140625 -20.15625 C 14.140625 -20.1875 14.332031 -20.285156 14.71875 -20.453125 C 15.101562 -20.617188 15.441406 -20.875 15.734375 -21.21875 C 16.035156 -21.5625 16.1875 -22.03125 16.1875 -22.625 C 16.1875 -23.675781 15.78125 -24.5 14.96875 -25.09375 C 14.164062 -25.6875 13.140625 -25.984375 11.890625 -25.984375 C 10.148438 -25.984375 8.832031 -25.578125 7.9375 -24.765625 C 7.050781 -23.960938 6.609375 -22.960938 6.609375 -21.765625 C 6.609375 -20.773438 6.875 -19.945312 7.40625 -19.28125 C 7.945312 -18.613281 8.816406 -17.953125 10.015625 -17.296875 C 10.984375 -16.785156 12.035156 -16.273438 13.171875 -15.765625 C 14.984375 -14.941406 16.421875 -14.1875 17.484375 -13.5 C 18.554688 -12.820312 19.453125 -11.925781 20.171875 -10.8125 C 20.898438 -9.707031 21.265625 -8.332031 21.265625 -6.6875 C 21.265625 -5.269531 20.816406 -3.984375 19.921875 -2.828125 C 19.023438 -1.679688 17.816406 -0.78125 16.296875 -0.125 C 14.773438 0.53125 13.109375 0.859375 11.296875 0.859375 Z M 11.296875 0.859375 "/></g></g></g><g fill="#ffffff" fill-opacity="1"><g transform="translate(122.369811, 47.885921)"><g><path d="M 15.25 0.859375 C 12.832031 0.859375 10.625 0.285156 8.625 -0.859375 C 6.625 -2.015625 5.035156 -3.65625 3.859375 -5.78125 C 2.679688 -7.914062 2.09375 -10.40625 2.09375 -13.25 C 2.09375 -16.125 2.660156 -18.648438 3.796875 -20.828125 C 4.929688 -23.015625 6.546875 -24.710938 8.640625 -25.921875 C 10.742188 -27.128906 13.203125 -27.734375 16.015625 -27.734375 C 18.460938 -27.734375 20.632812 -27.242188 22.53125 -26.265625 C 24.4375 -25.285156 25.390625 -23.773438 25.390625 -21.734375 C 25.421875 -20.453125 25.035156 -19.363281 24.234375 -18.46875 C 23.441406 -17.570312 22.378906 -17.125 21.046875 -17.125 C 20.535156 -17.125 20.101562 -17.21875 19.75 -17.40625 C 19.394531 -17.59375 19.128906 -17.8125 18.953125 -18.0625 C 18.785156 -18.320312 18.71875 -18.519531 18.75 -18.65625 C 18.75 -18.71875 18.945312 -18.875 19.34375 -19.125 C 19.738281 -19.382812 20.09375 -19.738281 20.40625 -20.1875 C 20.71875 -20.644531 20.875 -21.203125 20.875 -21.859375 C 20.875 -23.140625 20.441406 -24.15625 19.578125 -24.90625 C 18.710938 -25.65625 17.515625 -26.03125 15.984375 -26.03125 C 14.242188 -26.03125 12.695312 -25.539062 11.34375 -24.5625 C 10 -23.582031 8.953125 -22.144531 8.203125 -20.25 C 7.453125 -18.363281 7.078125 -16.113281 7.078125 -13.5 C 7.078125 -11.226562 7.476562 -9.160156 8.28125 -7.296875 C 9.09375 -5.441406 10.238281 -3.96875 11.71875 -2.875 C 13.195312 -1.78125 14.882812 -1.234375 16.78125 -1.234375 C 18.320312 -1.234375 19.640625 -1.550781 20.734375 -2.1875 C 21.828125 -2.832031 22.8125 -3.863281 23.6875 -5.28125 C 23.832031 -5.539062 24.03125 -5.671875 24.28125 -5.671875 C 24.507812 -5.671875 24.765625 -5.582031 25.046875 -5.40625 C 25.503906 -5.09375 25.734375 -4.78125 25.734375 -4.46875 C 25.734375 -4.300781 25.675781 -4.160156 25.5625 -4.046875 C 24.488281 -2.679688 23.472656 -1.648438 22.515625 -0.953125 C 21.566406 -0.265625 20.535156 0.207031 19.421875 0.46875 C 18.316406 0.726562 16.925781 0.859375 15.25 0.859375 Z M 15.25 0.859375 "/></g></g></g><g fill="#ffffff" fill-opacity="1"><g transform="translate(149.599467, 47.885921)"><g><path d="M 2.5625 0.125 C 2.332031 0.125 2.148438 0.0351562 2.015625 -0.140625 C 1.890625 -0.328125 1.828125 -0.550781 1.828125 -0.8125 C 1.859375 -1.238281 1.941406 -1.492188 2.078125 -1.578125 C 2.222656 -1.660156 2.492188 -1.703125 2.890625 -1.703125 C 3.722656 -1.703125 4.335938 -1.847656 4.734375 -2.140625 C 5.128906 -2.441406 5.375 -2.8125 5.46875 -3.25 C 5.570312 -3.695312 5.640625 -4.273438 5.671875 -4.984375 L 5.671875 -21.90625 C 5.640625 -22.613281 5.570312 -23.1875 5.46875 -23.625 C 5.375 -24.0625 5.128906 -24.429688 4.734375 -24.734375 C 4.335938 -25.035156 3.722656 -25.1875 2.890625 -25.1875 L 2.640625 -25.1875 C 2.359375 -25.1875 2.160156 -25.234375 2.046875 -25.328125 C 1.929688 -25.429688 1.859375 -25.679688 1.828125 -26.078125 C 1.828125 -26.328125 1.890625 -26.546875 2.015625 -26.734375 C 2.148438 -26.921875 2.332031 -27.015625 2.5625 -27.015625 C 4.4375 -26.929688 6.125 -26.890625 7.625 -26.890625 L 21 -26.890625 C 21.738281 -26.890625 22.109375 -26.546875 22.109375 -25.859375 L 22.234375 -19.90625 C 22.234375 -19.644531 22.101562 -19.4375 21.84375 -19.28125 C 21.59375 -19.125 21.34375 -19.046875 21.09375 -19.046875 C 20.75 -19.046875 20.445312 -19.109375 20.1875 -19.234375 C 19.9375 -19.367188 19.796875 -19.5625 19.765625 -19.8125 C 19.546875 -21.207031 19.300781 -22.265625 19.03125 -22.984375 C 18.757812 -23.710938 18.359375 -24.253906 17.828125 -24.609375 C 17.304688 -24.960938 16.5625 -25.15625 15.59375 -25.1875 L 9.890625 -25.1875 L 9.890625 -14.359375 L 17.59375 -14.359375 C 17.789062 -14.328125 17.945312 -14.21875 18.0625 -14.03125 C 18.175781 -13.851562 18.234375 -13.632812 18.234375 -13.375 C 18.234375 -13.144531 18.175781 -12.945312 18.0625 -12.78125 C 17.945312 -12.613281 17.789062 -12.53125 17.59375 -12.53125 L 9.890625 -12.53125 L 9.890625 -4.46875 C 9.941406 -3.875 10.007812 -3.398438 10.09375 -3.046875 C 10.175781 -2.691406 10.429688 -2.367188 10.859375 -2.078125 C 11.285156 -1.796875 11.957031 -1.671875 12.875 -1.703125 L 16.78125 -1.703125 C 17.78125 -1.734375 18.535156 -1.894531 19.046875 -2.1875 C 19.554688 -2.488281 19.957031 -2.953125 20.25 -3.578125 C 20.550781 -4.203125 20.914062 -5.222656 21.34375 -6.640625 C 21.539062 -7.148438 22.023438 -7.351562 22.796875 -7.25 C 23.078125 -7.1875 23.320312 -7.066406 23.53125 -6.890625 C 23.75 -6.722656 23.84375 -6.515625 23.8125 -6.265625 L 22.96875 -0.890625 C 22.882812 -0.523438 22.753906 -0.285156 22.578125 -0.171875 C 22.410156 -0.0546875 22.128906 0 21.734375 0 L 7.671875 0 C 6.140625 0 4.4375 0.0390625 2.5625 0.125 Z M 2.5625 0.125 "/></g></g></g><g fill="#ffffff" fill-opacity="1"><g transform="translate(174.911537, 47.885921)"><g><path d="M 2.640625 0.125 C 2.390625 0.125 2.195312 0.0351562 2.0625 -0.140625 C 1.9375 -0.328125 1.875 -0.550781 1.875 -0.8125 C 1.90625 -1.238281 1.988281 -1.492188 2.125 -1.578125 C 2.269531 -1.660156 2.539062 -1.703125 2.9375 -1.703125 C 3.757812 -1.703125 4.363281 -1.847656 4.75 -2.140625 C 5.132812 -2.441406 5.367188 -2.796875 5.453125 -3.203125 C 5.535156 -3.617188 5.59375 -4.210938 5.625 -4.984375 L 5.703125 -21.90625 C 5.703125 -22.75 5.609375 -23.390625 5.421875 -23.828125 C 5.242188 -24.273438 4.957031 -24.597656 4.5625 -24.796875 C 4.164062 -24.992188 3.597656 -25.164062 2.859375 -25.3125 C 2.367188 -25.394531 2.066406 -25.476562 1.953125 -25.5625 C 1.847656 -25.644531 1.796875 -25.890625 1.796875 -26.296875 C 1.796875 -26.628906 1.882812 -26.851562 2.0625 -26.96875 C 2.25 -27.082031 2.539062 -27.140625 2.9375 -27.140625 C 4.695312 -27.140625 6.085938 -27.019531 7.109375 -26.78125 C 8.140625 -26.539062 9.046875 -26.109375 9.828125 -25.484375 C 10.609375 -24.859375 11.46875 -23.90625 12.40625 -22.625 L 24.078125 -7.28125 L 24.203125 -7.28125 L 24.109375 -21.90625 C 24.085938 -22.664062 24.03125 -23.25 23.9375 -23.65625 C 23.851562 -24.070312 23.617188 -24.429688 23.234375 -24.734375 C 22.859375 -25.035156 22.257812 -25.1875 21.4375 -25.1875 L 21.171875 -25.1875 C 20.890625 -25.1875 20.6875 -25.234375 20.5625 -25.328125 C 20.4375 -25.429688 20.359375 -25.679688 20.328125 -26.078125 C 20.328125 -26.328125 20.394531 -26.546875 20.53125 -26.734375 C 20.675781 -26.921875 20.863281 -27.015625 21.09375 -27.015625 C 22.90625 -26.929688 24.269531 -26.890625 25.1875 -26.890625 C 25.71875 -26.890625 26.753906 -26.914062 28.296875 -26.96875 L 29.1875 -27.015625 C 29.445312 -27.015625 29.640625 -26.921875 29.765625 -26.734375 C 29.890625 -26.546875 29.953125 -26.328125 29.953125 -26.078125 C 29.921875 -25.648438 29.832031 -25.394531 29.6875 -25.3125 C 29.550781 -25.226562 29.285156 -25.1875 28.890625 -25.1875 C 28.066406 -25.1875 27.460938 -25.035156 27.078125 -24.734375 C 26.691406 -24.429688 26.457031 -24.070312 26.375 -23.65625 C 26.289062 -23.25 26.234375 -22.664062 26.203125 -21.90625 L 26.125 -0.421875 C 26.09375 -0.0546875 25.734375 0.125 25.046875 0.125 C 24.515625 0.125 24.101562 -0.0546875 23.8125 -0.421875 L 7.75 -21.90625 L 7.625 -21.90625 L 7.71875 -4.984375 C 7.738281 -4.210938 7.789062 -3.617188 7.875 -3.203125 C 7.96875 -2.796875 8.203125 -2.441406 8.578125 -2.140625 C 8.960938 -1.847656 9.566406 -1.703125 10.390625 -1.703125 L 10.65625 -1.703125 C 10.9375 -1.703125 11.140625 -1.648438 11.265625 -1.546875 C 11.398438 -1.453125 11.476562 -1.207031 11.5 -0.8125 C 11.5 -0.550781 11.4375 -0.328125 11.3125 -0.140625 C 11.1875 0.0351562 10.992188 0.125 10.734375 0.125 C 8.921875 0.0390625 7.546875 0 6.609375 0 C 6.035156 0 5.039062 0.0234375 3.625 0.078125 Z M 2.640625 0.125 "/></g></g></g><g fill="#ffffff" fill-opacity="1"><g transform="translate(206.317255, 47.885921)"><g><path d="M 2.5625 0.125 C 2.332031 0.125 2.148438 0.0351562 2.015625 -0.140625 C 1.890625 -0.328125 1.828125 -0.550781 1.828125 -0.8125 C 1.859375 -1.238281 1.941406 -1.492188 2.078125 -1.578125 C 2.222656 -1.660156 2.492188 -1.703125 2.890625 -1.703125 C 3.722656 -1.703125 4.335938 -1.847656 4.734375 -2.140625 C 5.128906 -2.441406 5.375 -2.8125 5.46875 -3.25 C 5.570312 -3.695312 5.640625 -4.273438 5.671875 -4.984375 L 5.671875 -21.90625 C 5.640625 -22.613281 5.570312 -23.1875 5.46875 -23.625 C 5.375 -24.0625 5.128906 -24.429688 4.734375 -24.734375 C 4.335938 -25.035156 3.722656 -25.1875 2.890625 -25.1875 L 2.640625 -25.1875 C 2.359375 -25.1875 2.160156 -25.234375 2.046875 -25.328125 C 1.929688 -25.429688 1.859375 -25.679688 1.828125 -26.078125 C 1.828125 -26.328125 1.890625 -26.546875 2.015625 -26.734375 C 2.148438 -26.921875 2.332031 -27.015625 2.5625 -27.015625 C 4.4375 -26.929688 6.125 -26.890625 7.625 -26.890625 L 14.28125 -26.890625 C 17 -26.890625 19.472656 -26.34375 21.703125 -25.25 C 23.929688 -24.15625 25.691406 -22.582031 26.984375 -20.53125 C 28.285156 -18.488281 28.9375 -16.078125 28.9375 -13.296875 C 28.9375 -10.398438 28.203125 -7.945312 26.734375 -5.9375 C 25.273438 -3.9375 23.375 -2.445312 21.03125 -1.46875 C 18.6875 -0.488281 16.175781 0 13.5 0 L 7.625 0 C 6.125 0 4.4375 0.0390625 2.5625 0.125 Z M 14.140625 -1.578125 C 17.460938 -1.578125 19.898438 -2.601562 21.453125 -4.65625 C 23.003906 -6.71875 23.78125 -9.597656 23.78125 -13.296875 C 23.78125 -15.617188 23.359375 -17.695312 22.515625 -19.53125 C 21.679688 -21.363281 20.46875 -22.789062 18.875 -23.8125 C 17.28125 -24.84375 15.390625 -25.359375 13.203125 -25.359375 L 9.890625 -25.3125 L 9.890625 -4.46875 C 9.890625 -3.363281 10.222656 -2.601562 10.890625 -2.1875 C 11.554688 -1.78125 12.640625 -1.578125 14.140625 -1.578125 Z M 14.140625 -1.578125 "/></g></g></g></svg>